<mxfile host="app.diagrams.net" modified="2020-04-10T12:28:22.763Z" agent="5.0 (Windows NT 10.0; Win64; x64) AppleWebKit/537.36 (KHTML, like Gecko) Chrome/80.0.3987.149 Safari/537.36" etag="DtiP25dWdn1Xuov5gBX4" version="12.9.9" type="github">
  <diagram id="6sZUYCd6SJtvm4ZccUm2" name="Страница 1">
    <mxGraphModel dx="1422" dy="2074" grid="1" gridSize="10" guides="1" tooltips="1" connect="1" arrows="1" fold="1" page="1" pageScale="1" pageWidth="827" pageHeight="1169" math="0" shadow="0">
      <root>
        <mxCell id="0" />
        <mxCell id="1" parent="0" />
        <mxCell id="d1vBrUORe-Oo3YSFBDus-1" value="Виртуальные серверы" style="rounded=0;whiteSpace=wrap;html=1;dashed=1;align=center;verticalAlign=top;fontSize=16;" vertex="1" parent="1">
          <mxGeometry x="40" y="-800" width="370" height="880" as="geometry" />
        </mxCell>
        <mxCell id="d1vBrUORe-Oo3YSFBDus-2" value="ud-virt-s-v74-01&lt;br&gt;10.3.74.10&lt;br&gt;K8S" style="rounded=1;whiteSpace=wrap;html=1;dashed=1;align=center;verticalAlign=top;fillColor=#dae8fc;strokeColor=#6c8ebf;" vertex="1" parent="1">
          <mxGeometry x="60" y="-760" width="120" height="60" as="geometry" />
        </mxCell>
        <mxCell id="d1vBrUORe-Oo3YSFBDus-3" value="ud-virt-s-v74-02&lt;br&gt;10.3.74.11&lt;br&gt;K8S" style="rounded=1;whiteSpace=wrap;html=1;dashed=1;align=center;verticalAlign=top;fillColor=#dae8fc;strokeColor=#6c8ebf;" vertex="1" parent="1">
          <mxGeometry x="60" y="-680" width="120" height="60" as="geometry" />
        </mxCell>
        <mxCell id="d1vBrUORe-Oo3YSFBDus-4" value="ud-virt-s-v74-03&lt;br&gt;10.3.74.12&lt;br&gt;K8S" style="rounded=1;whiteSpace=wrap;html=1;dashed=1;align=center;verticalAlign=top;fillColor=#dae8fc;strokeColor=#6c8ebf;" vertex="1" parent="1">
          <mxGeometry x="60" y="-600" width="120" height="60" as="geometry" />
        </mxCell>
        <mxCell id="d1vBrUORe-Oo3YSFBDus-5" value="ud-virt-s-v74-07&lt;br&gt;10.3.74.16&lt;br&gt;K8S" style="rounded=1;whiteSpace=wrap;html=1;dashed=1;align=center;verticalAlign=top;fillColor=#dae8fc;strokeColor=#6c8ebf;" vertex="1" parent="1">
          <mxGeometry x="60" y="-260" width="120" height="60" as="geometry" />
        </mxCell>
        <mxCell id="d1vBrUORe-Oo3YSFBDus-6" value="ud-virt-s-v74-08&lt;br&gt;10.3.74.17&lt;br&gt;K8S" style="rounded=1;whiteSpace=wrap;html=1;dashed=1;align=center;verticalAlign=top;fillColor=#dae8fc;strokeColor=#6c8ebf;" vertex="1" parent="1">
          <mxGeometry x="60" y="-180" width="120" height="60" as="geometry" />
        </mxCell>
        <mxCell id="d1vBrUORe-Oo3YSFBDus-7" value="ud-virt-s-v74-09&lt;br&gt;10.3.74.18&lt;br&gt;K8S" style="rounded=1;whiteSpace=wrap;html=1;dashed=1;align=center;verticalAlign=top;fillColor=#dae8fc;strokeColor=#6c8ebf;" vertex="1" parent="1">
          <mxGeometry x="60" y="-100" width="120" height="60" as="geometry" />
        </mxCell>
        <mxCell id="d1vBrUORe-Oo3YSFBDus-8" value="ud-virt-s-v74-04&lt;br&gt;10.3.74.13&lt;br&gt;HBase" style="rounded=1;whiteSpace=wrap;html=1;dashed=1;align=center;verticalAlign=top;fillColor=#e1d5e7;strokeColor=#9673a6;" vertex="1" parent="1">
          <mxGeometry x="60" y="-510" width="120" height="60" as="geometry" />
        </mxCell>
        <mxCell id="d1vBrUORe-Oo3YSFBDus-9" value="ud-virt-s-v74-05&lt;br&gt;10.3.74.14&lt;br&gt;HBase" style="rounded=1;whiteSpace=wrap;html=1;dashed=1;align=center;verticalAlign=top;fillColor=#e1d5e7;strokeColor=#9673a6;" vertex="1" parent="1">
          <mxGeometry x="60" y="-430" width="120" height="60" as="geometry" />
        </mxCell>
        <mxCell id="d1vBrUORe-Oo3YSFBDus-10" value="ud-virt-s-v74-06&lt;br&gt;10.3.74.15&lt;br&gt;HBase" style="rounded=1;whiteSpace=wrap;html=1;dashed=1;align=center;verticalAlign=top;fillColor=#e1d5e7;strokeColor=#9673a6;" vertex="1" parent="1">
          <mxGeometry x="60" y="-350" width="120" height="60" as="geometry" />
        </mxCell>
        <mxCell id="d1vBrUORe-Oo3YSFBDus-11" value="ud-virt-s-v74-10&lt;br&gt;10.3.74.19&lt;br&gt;PostgreSQL&lt;br&gt;cpu 4&lt;span&gt;&amp;nbsp;ram&amp;nbsp;&lt;/span&gt;8" style="rounded=1;whiteSpace=wrap;html=1;dashed=1;align=center;verticalAlign=top;fillColor=#d5e8d4;strokeColor=#82b366;" vertex="1" parent="1">
          <mxGeometry x="60" y="-10" width="120" height="60" as="geometry" />
        </mxCell>
        <mxCell id="d1vBrUORe-Oo3YSFBDus-12" value="Исследовательский стенд" style="rounded=0;whiteSpace=wrap;html=1;dashed=1;align=left;verticalAlign=top;fontSize=16;" vertex="1" parent="1">
          <mxGeometry x="920" y="-800" width="270" height="120" as="geometry" />
        </mxCell>
        <mxCell id="d1vBrUORe-Oo3YSFBDus-13" value="Казахстан" style="rounded=0;whiteSpace=wrap;html=1;dashed=1;align=left;verticalAlign=top;fontSize=16;" vertex="1" parent="1">
          <mxGeometry x="920" y="-640" width="270" height="120" as="geometry" />
        </mxCell>
        <mxCell id="d1vBrUORe-Oo3YSFBDus-14" value="Киргизстан" style="rounded=0;whiteSpace=wrap;html=1;dashed=1;align=left;verticalAlign=top;fontSize=16;" vertex="1" parent="1">
          <mxGeometry x="920" y="-480" width="270" height="120" as="geometry" />
        </mxCell>
        <mxCell id="d1vBrUORe-Oo3YSFBDus-15" value="Узбекистан" style="rounded=0;whiteSpace=wrap;html=1;dashed=1;align=left;verticalAlign=top;fontSize=16;" vertex="1" parent="1">
          <mxGeometry x="920" y="-320" width="270" height="120" as="geometry" />
        </mxCell>
        <mxCell id="d1vBrUORe-Oo3YSFBDus-17" value="DEV" style="shape=process;whiteSpace=wrap;html=1;backgroundOutline=1;fontSize=16;align=center;" vertex="1" parent="1">
          <mxGeometry x="940" y="-600" width="70" height="60" as="geometry" />
        </mxCell>
        <mxCell id="d1vBrUORe-Oo3YSFBDus-86" style="edgeStyle=orthogonalEdgeStyle;rounded=0;orthogonalLoop=1;jettySize=auto;html=1;exitX=0.5;exitY=1;exitDx=0;exitDy=0;entryX=1;entryY=0.5;entryDx=0;entryDy=0;" edge="1" parent="1" source="d1vBrUORe-Oo3YSFBDus-19" target="d1vBrUORe-Oo3YSFBDus-9">
          <mxGeometry relative="1" as="geometry">
            <Array as="points">
              <mxPoint x="1055" y="-510" />
              <mxPoint x="600" y="-510" />
              <mxPoint x="600" y="-400" />
            </Array>
          </mxGeometry>
        </mxCell>
        <mxCell id="d1vBrUORe-Oo3YSFBDus-19" value="TEST" style="shape=process;whiteSpace=wrap;html=1;backgroundOutline=1;fontSize=16;align=center;" vertex="1" parent="1">
          <mxGeometry x="1020" y="-600" width="70" height="60" as="geometry" />
        </mxCell>
        <mxCell id="d1vBrUORe-Oo3YSFBDus-22" value="DEMO" style="shape=process;whiteSpace=wrap;html=1;backgroundOutline=1;fontSize=16;align=center;" vertex="1" parent="1">
          <mxGeometry x="1099" y="-600" width="70" height="60" as="geometry" />
        </mxCell>
        <mxCell id="d1vBrUORe-Oo3YSFBDus-85" style="edgeStyle=orthogonalEdgeStyle;rounded=0;orthogonalLoop=1;jettySize=auto;html=1;exitX=0;exitY=0.5;exitDx=0;exitDy=0;entryX=1;entryY=0.5;entryDx=0;entryDy=0;" edge="1" parent="1" source="d1vBrUORe-Oo3YSFBDus-24" target="d1vBrUORe-Oo3YSFBDus-8">
          <mxGeometry relative="1" as="geometry">
            <Array as="points">
              <mxPoint x="860" y="-730" />
              <mxPoint x="860" y="-630" />
              <mxPoint x="560" y="-630" />
              <mxPoint x="560" y="-480" />
            </Array>
          </mxGeometry>
        </mxCell>
        <mxCell id="d1vBrUORe-Oo3YSFBDus-24" value="DEV" style="shape=process;whiteSpace=wrap;html=1;backgroundOutline=1;fontSize=16;align=center;" vertex="1" parent="1">
          <mxGeometry x="940" y="-760" width="70" height="60" as="geometry" />
        </mxCell>
        <mxCell id="d1vBrUORe-Oo3YSFBDus-26" value="DEV" style="shape=process;whiteSpace=wrap;html=1;backgroundOutline=1;fontSize=16;align=center;" vertex="1" parent="1">
          <mxGeometry x="940.5" y="-443" width="70" height="60" as="geometry" />
        </mxCell>
        <mxCell id="d1vBrUORe-Oo3YSFBDus-88" style="edgeStyle=orthogonalEdgeStyle;rounded=0;orthogonalLoop=1;jettySize=auto;html=1;exitX=0.5;exitY=1;exitDx=0;exitDy=0;entryX=1;entryY=0.5;entryDx=0;entryDy=0;" edge="1" parent="1" source="d1vBrUORe-Oo3YSFBDus-28" target="d1vBrUORe-Oo3YSFBDus-10">
          <mxGeometry relative="1" as="geometry">
            <Array as="points">
              <mxPoint x="1056" y="-340" />
              <mxPoint x="650" y="-340" />
              <mxPoint x="650" y="-320" />
            </Array>
          </mxGeometry>
        </mxCell>
        <mxCell id="d1vBrUORe-Oo3YSFBDus-28" value="TEST" style="shape=process;whiteSpace=wrap;html=1;backgroundOutline=1;fontSize=16;align=center;" vertex="1" parent="1">
          <mxGeometry x="1020.5" y="-443" width="70" height="60" as="geometry" />
        </mxCell>
        <mxCell id="d1vBrUORe-Oo3YSFBDus-31" value="DEMO" style="shape=process;whiteSpace=wrap;html=1;backgroundOutline=1;fontSize=16;align=center;" vertex="1" parent="1">
          <mxGeometry x="1099.5" y="-443" width="70" height="60" as="geometry" />
        </mxCell>
        <mxCell id="d1vBrUORe-Oo3YSFBDus-33" value="DEV" style="shape=process;whiteSpace=wrap;html=1;backgroundOutline=1;fontSize=16;align=center;" vertex="1" parent="1">
          <mxGeometry x="941" y="-280" width="70" height="60" as="geometry" />
        </mxCell>
        <mxCell id="d1vBrUORe-Oo3YSFBDus-35" value="TEST" style="shape=process;whiteSpace=wrap;html=1;backgroundOutline=1;fontSize=16;align=center;" vertex="1" parent="1">
          <mxGeometry x="1021" y="-280" width="70" height="60" as="geometry" />
        </mxCell>
        <mxCell id="d1vBrUORe-Oo3YSFBDus-38" value="DEMO" style="shape=process;whiteSpace=wrap;html=1;backgroundOutline=1;fontSize=16;align=center;" vertex="1" parent="1">
          <mxGeometry x="1100" y="-280" width="70" height="60" as="geometry" />
        </mxCell>
        <mxCell id="d1vBrUORe-Oo3YSFBDus-78" style="edgeStyle=orthogonalEdgeStyle;rounded=0;orthogonalLoop=1;jettySize=auto;html=1;exitX=0;exitY=0.25;exitDx=0;exitDy=0;entryX=1;entryY=0.5;entryDx=0;entryDy=0;" edge="1" parent="1" source="d1vBrUORe-Oo3YSFBDus-39" target="d1vBrUORe-Oo3YSFBDus-2">
          <mxGeometry relative="1" as="geometry" />
        </mxCell>
        <mxCell id="d1vBrUORe-Oo3YSFBDus-80" style="edgeStyle=orthogonalEdgeStyle;rounded=0;orthogonalLoop=1;jettySize=auto;html=1;exitX=0;exitY=0.5;exitDx=0;exitDy=0;entryX=1;entryY=0.5;entryDx=0;entryDy=0;" edge="1" parent="1" source="d1vBrUORe-Oo3YSFBDus-39" target="d1vBrUORe-Oo3YSFBDus-3">
          <mxGeometry relative="1" as="geometry" />
        </mxCell>
        <mxCell id="d1vBrUORe-Oo3YSFBDus-81" style="edgeStyle=orthogonalEdgeStyle;rounded=0;orthogonalLoop=1;jettySize=auto;html=1;exitX=0;exitY=0.75;exitDx=0;exitDy=0;entryX=1;entryY=0.5;entryDx=0;entryDy=0;" edge="1" parent="1" source="d1vBrUORe-Oo3YSFBDus-39" target="d1vBrUORe-Oo3YSFBDus-4">
          <mxGeometry relative="1" as="geometry">
            <Array as="points">
              <mxPoint x="400" y="-695" />
              <mxPoint x="400" y="-570" />
            </Array>
          </mxGeometry>
        </mxCell>
        <mxCell id="d1vBrUORe-Oo3YSFBDus-89" style="edgeStyle=orthogonalEdgeStyle;rounded=0;orthogonalLoop=1;jettySize=auto;html=1;exitX=1;exitY=0.5;exitDx=0;exitDy=0;entryX=0;entryY=0.5;entryDx=0;entryDy=0;" edge="1" parent="1" source="d1vBrUORe-Oo3YSFBDus-39" target="d1vBrUORe-Oo3YSFBDus-13">
          <mxGeometry relative="1" as="geometry">
            <Array as="points">
              <mxPoint x="780" y="-730" />
              <mxPoint x="780" y="-580" />
            </Array>
          </mxGeometry>
        </mxCell>
        <mxCell id="d1vBrUORe-Oo3YSFBDus-91" style="edgeStyle=orthogonalEdgeStyle;rounded=0;orthogonalLoop=1;jettySize=auto;html=1;exitX=0.5;exitY=1;exitDx=0;exitDy=0;entryX=0;entryY=0.5;entryDx=0;entryDy=0;" edge="1" parent="1" source="d1vBrUORe-Oo3YSFBDus-39" target="d1vBrUORe-Oo3YSFBDus-14">
          <mxGeometry relative="1" as="geometry" />
        </mxCell>
        <mxCell id="d1vBrUORe-Oo3YSFBDus-39" value="k8s cluster01" style="rounded=0;whiteSpace=wrap;html=1;fontSize=16;align=center;dashed=1;verticalAlign=top;" vertex="1" parent="1">
          <mxGeometry x="560" y="-800" width="190" height="140" as="geometry" />
        </mxCell>
        <mxCell id="d1vBrUORe-Oo3YSFBDus-40" value="" style="aspect=fixed;html=1;points=[];align=center;image;fontSize=12;image=img/lib/mscae/Kubernetes.svg;dashed=1;" vertex="1" parent="1">
          <mxGeometry x="630" y="-770" width="50" height="48" as="geometry" />
        </mxCell>
        <mxCell id="d1vBrUORe-Oo3YSFBDus-42" value="Control" style="ellipse;whiteSpace=wrap;html=1;aspect=fixed;dashed=1;fontSize=12;align=center;fontColor=#000000;strokeColor=#000000;" vertex="1" parent="1">
          <mxGeometry x="580" y="-710" width="40" height="40" as="geometry" />
        </mxCell>
        <mxCell id="d1vBrUORe-Oo3YSFBDus-44" value="Worker" style="ellipse;whiteSpace=wrap;html=1;aspect=fixed;dashed=1;fontSize=12;align=center;fontColor=#000000;strokeColor=#000000;" vertex="1" parent="1">
          <mxGeometry x="635" y="-710" width="40" height="40" as="geometry" />
        </mxCell>
        <mxCell id="d1vBrUORe-Oo3YSFBDus-46" value="Worker" style="ellipse;whiteSpace=wrap;html=1;aspect=fixed;dashed=1;fontSize=12;align=center;fontColor=#000000;strokeColor=#000000;" vertex="1" parent="1">
          <mxGeometry x="690" y="-710" width="40" height="40" as="geometry" />
        </mxCell>
        <mxCell id="d1vBrUORe-Oo3YSFBDus-77" style="edgeStyle=orthogonalEdgeStyle;rounded=0;orthogonalLoop=1;jettySize=auto;html=1;exitX=0;exitY=0.5;exitDx=0;exitDy=0;entryX=1;entryY=0.5;entryDx=0;entryDy=0;" edge="1" parent="1" source="d1vBrUORe-Oo3YSFBDus-72" target="d1vBrUORe-Oo3YSFBDus-6">
          <mxGeometry relative="1" as="geometry">
            <Array as="points">
              <mxPoint x="360" y="-200" />
              <mxPoint x="360" y="-150" />
            </Array>
          </mxGeometry>
        </mxCell>
        <mxCell id="d1vBrUORe-Oo3YSFBDus-79" style="edgeStyle=orthogonalEdgeStyle;rounded=0;orthogonalLoop=1;jettySize=auto;html=1;exitX=0;exitY=0.75;exitDx=0;exitDy=0;entryX=1.008;entryY=0.617;entryDx=0;entryDy=0;entryPerimeter=0;" edge="1" parent="1" source="d1vBrUORe-Oo3YSFBDus-72" target="d1vBrUORe-Oo3YSFBDus-7">
          <mxGeometry relative="1" as="geometry">
            <Array as="points">
              <mxPoint x="380" y="-165" />
              <mxPoint x="380" y="-63" />
            </Array>
          </mxGeometry>
        </mxCell>
        <mxCell id="d1vBrUORe-Oo3YSFBDus-82" style="edgeStyle=orthogonalEdgeStyle;rounded=0;orthogonalLoop=1;jettySize=auto;html=1;exitX=0;exitY=0.25;exitDx=0;exitDy=0;entryX=1;entryY=0.5;entryDx=0;entryDy=0;" edge="1" parent="1" source="d1vBrUORe-Oo3YSFBDus-72" target="d1vBrUORe-Oo3YSFBDus-5">
          <mxGeometry relative="1" as="geometry" />
        </mxCell>
        <mxCell id="d1vBrUORe-Oo3YSFBDus-90" style="edgeStyle=orthogonalEdgeStyle;rounded=0;orthogonalLoop=1;jettySize=auto;html=1;exitX=1;exitY=0.75;exitDx=0;exitDy=0;entryX=1;entryY=0.5;entryDx=0;entryDy=0;" edge="1" parent="1" source="d1vBrUORe-Oo3YSFBDus-72" target="d1vBrUORe-Oo3YSFBDus-12">
          <mxGeometry relative="1" as="geometry">
            <Array as="points">
              <mxPoint x="1280" y="-165" />
              <mxPoint x="1280" y="-740" />
            </Array>
          </mxGeometry>
        </mxCell>
        <mxCell id="d1vBrUORe-Oo3YSFBDus-72" value="k8s cluster01" style="rounded=0;whiteSpace=wrap;html=1;fontSize=16;align=center;dashed=1;verticalAlign=top;" vertex="1" parent="1">
          <mxGeometry x="560" y="-270" width="190" height="140" as="geometry" />
        </mxCell>
        <mxCell id="d1vBrUORe-Oo3YSFBDus-73" value="" style="aspect=fixed;html=1;points=[];align=center;image;fontSize=12;image=img/lib/mscae/Kubernetes.svg;dashed=1;" vertex="1" parent="1">
          <mxGeometry x="630" y="-240" width="50" height="48" as="geometry" />
        </mxCell>
        <mxCell id="d1vBrUORe-Oo3YSFBDus-74" value="Control" style="ellipse;whiteSpace=wrap;html=1;aspect=fixed;dashed=1;fontSize=12;align=center;fontColor=#000000;strokeColor=#000000;" vertex="1" parent="1">
          <mxGeometry x="580" y="-180" width="40" height="40" as="geometry" />
        </mxCell>
        <mxCell id="d1vBrUORe-Oo3YSFBDus-75" value="Worker" style="ellipse;whiteSpace=wrap;html=1;aspect=fixed;dashed=1;fontSize=12;align=center;fontColor=#000000;strokeColor=#000000;" vertex="1" parent="1">
          <mxGeometry x="635" y="-180" width="40" height="40" as="geometry" />
        </mxCell>
        <mxCell id="d1vBrUORe-Oo3YSFBDus-76" value="Worker" style="ellipse;whiteSpace=wrap;html=1;aspect=fixed;dashed=1;fontSize=12;align=center;fontColor=#000000;strokeColor=#000000;" vertex="1" parent="1">
          <mxGeometry x="690" y="-180" width="40" height="40" as="geometry" />
        </mxCell>
      </root>
    </mxGraphModel>
  </diagram>
</mxfile>
